<?xml version="1.0" encoding="UTF-8"?>
<svg width="128px" height="128px" viewBox="0 0 128 128" version="1.1" xmlns="http://www.w3.org/2000/svg" xmlns:xlink="http://www.w3.org/1999/xlink">
    <!-- Generator: Sketch 48.1 (47250) - http://www.bohemiancoding.com/sketch -->
    <title>Group 3</title>
    <desc>Created with Sketch.</desc>
    <defs></defs>
    <g id="Artboard-3" stroke="none" stroke-width="1" fill="none" fill-rule="evenodd" transform="translate(-581.000000, -286.000000)">
        <g id="Group-3" transform="translate(581.000000, 286.000000)">
            <path d="M33,25.2256593 L63.7789905,25.2256593 C69.8717904,25.2256593 76.9494836,24.7179259 79.9433594,25.2256593 C82.9372352,25.7333926 86.5797732,27.6149191 88.9433594,29.2256593 C91.3069455,30.8363995 93.7175989,35.2256593 93.7175989,38.2256593 C93.7175989,41.2256593 93.7175989,42.8991306 93.7175989,46.2256593 C93.7175989,49.8323167 93.8867524,53.2142754 91.9433594,56.2256593 C89.9999663,59.2370431 86.2698881,60.7199673 82.9433594,62.2256593 C87.6355156,63.5912868 91.1964403,63.9341467 93.7175989,67.2256593 C96.2387575,70.5171718 95.9433594,76.7786156 95.9433594,81.2256593 C95.9433594,84.7272684 95.9433594,91.2256593 94.9433594,93.2256593 C93.9433594,95.2256593 92.7621547,97.2472501 89.9433594,99.2256593 C87.124564,101.204068 84.0752582,101.77045 79.9433594,102.225659 C77.3521686,102.505788 69.1189672,102.155627 59.2094134,102.225659 L33,102.225659 L33,25.2256593 Z M48.5470668,38.0414846 L48.5470668,55.8470781 L58.7366985,55.8470781 C64.7944823,55.8470781 68.5586557,55.7595392 70.0293315,55.5844587 C72.6905545,55.2693139 74.7827345,54.3501553 76.3059345,52.8269553 C77.8291345,51.3037553 78.5907231,49.2991142 78.5907231,46.8129717 C78.5907231,44.4318775 77.9341812,42.4972674 76.6210778,41.0090835 C75.3079743,39.5208997 73.3558565,38.6192488 70.7646658,38.304104 C69.2239577,38.1290235 64.7944886,38.0414846 57.4761255,38.0414846 L48.5470668,38.0414846 Z M48.5470668,68.6629035 L48.5470668,89.2522623 L62.9386085,89.2522623 C68.5411831,89.2522623 72.095263,89.0946922 73.600955,88.7795474 C75.912017,88.3593543 77.7941037,87.335149 79.2472715,85.7069007 C80.7004393,84.0786525 81.4270123,81.8989335 81.4270123,79.1676784 C81.4270123,76.8566163 80.8667632,74.8957446 79.7462483,73.2850044 C78.6257334,71.6742642 77.0062634,70.5012427 74.8877899,69.7659048 C72.7693164,69.0305669 68.1735233,68.6629035 61.1002729,68.6629035 L48.5470668,68.6629035 Z" id="B" fill="#000000"></path>
            <rect id="Rectangle-12-Copy-2" stroke="#000000" stroke-width="4" x="2" y="2" width="124" height="124"></rect>
        </g>
    </g>
</svg>